# Blender v2.82 (sub 7) OBJ File: 'bolthead.blend'
# www.blender.org
mtllib bolthead.mtl
o Cube
v 1.000000 0.302549 -1.000000
v 1.000000 -0.302549 -1.000000
v 1.000000 0.302549 1.000000
v 1.000000 -0.302549 1.000000
v -1.000000 0.302549 -1.000000
v -1.000000 -0.302549 -1.000000
v -1.000000 0.302549 1.000000
v -1.000000 -0.302549 1.000000
v -1.000000 -0.302549 0.000000
v 1.000000 0.302549 0.000000
v -1.000000 0.302549 0.000000
v 1.000000 -0.302549 0.000000
v -1.000000 -0.302549 0.500000
v 1.000000 0.302549 0.500000
v -1.000000 0.302549 0.500000
v 1.000000 -0.302549 0.500000
v -1.000000 0.302549 -0.500000
v 1.000000 -0.302549 -0.500000
v -1.000000 -0.302549 -0.500000
v 1.000000 0.302549 -0.500000
v -0.019256 -0.302549 -1.000000
v -0.019256 0.302549 1.000000
v -0.019256 -0.302549 1.000000
v -0.019256 0.302549 -1.000000
v -0.019256 -0.302549 0.000000
v 0.910966 0.733174 -0.911406
v -0.019256 -0.302549 0.500000
v -0.021399 0.302549 0.683022
v -0.021399 0.302549 -0.683022
v -0.019256 -0.302549 -0.500000
v 0.488676 -0.302549 1.000000
v 0.488676 0.302549 -1.000000
v 0.672460 0.302549 0.000000
v 0.672460 0.302549 0.683022
v 0.672460 0.302549 -0.683022
v 0.488676 -0.302549 -1.000000
v 0.488676 0.302549 1.000000
v 0.488676 -0.302549 0.000000
v 0.488676 -0.302549 0.500000
v 0.488676 -0.302549 -0.500000
v -0.509628 -0.302549 -1.000000
v -0.509628 0.302549 1.000000
v -0.509628 -0.302549 0.000000
v -0.509628 -0.302549 0.500000
v -0.509628 -0.302549 -0.500000
v -0.509628 -0.302549 1.000000
v -0.509628 0.302549 -1.000000
v -0.691269 0.302549 0.000000
v -0.691269 0.302549 0.683022
v -0.691269 0.302549 -0.683022
v -0.021399 0.169065 0.000000
v -0.021399 0.169065 0.683022
v -0.021399 0.169065 -0.683022
v 0.672460 0.169065 0.000000
v 0.672460 0.169065 0.683022
v 0.672460 0.169065 -0.683022
v -0.691269 0.169065 0.000000
v -0.691269 0.169065 0.683022
v -0.691269 0.169065 -0.683022
v 0.910966 0.733174 0.911406
v -0.911846 0.733174 -0.911406
v -0.911846 0.733174 0.911406
v 0.910966 0.733174 0.455703
v -0.911846 0.733174 0.455703
v -0.911846 0.733174 -0.455703
v 0.910966 0.733174 -0.455703
v 0.444942 0.733174 -0.911406
v 0.612444 0.733174 0.622511
v 0.612444 0.733174 -0.622511
v 0.444942 0.733174 0.911406
v -0.464919 0.733174 0.911406
v -0.464919 0.733174 -0.911406
v -0.630467 0.733174 0.622511
v -0.630467 0.733174 -0.622511
v 0.916653 -0.537160 -0.917087
v 0.916653 -0.537160 0.917087
v -0.917521 -0.537160 -0.917087
v -0.917521 -0.537160 0.917087
v -0.917521 -0.537160 0.458544
v 0.916653 -0.537160 0.458544
v 0.916653 -0.537160 -0.458544
v -0.917521 -0.537160 -0.458544
v 0.447724 -0.537160 0.917087
v 0.447724 -0.537160 -0.917087
v 0.447724 -0.537160 0.458544
v 0.447724 -0.537160 -0.458544
v -0.467808 -0.537160 -0.917087
v -0.467808 -0.537160 0.458544
v -0.467808 -0.537160 -0.458544
v -0.467808 -0.537160 0.917087
vt 0.281869 0.372716
vt 0.281869 0.465894
vt 0.232124 0.474149
vt 0.232124 0.389226
vt 0.027431 0.654045
vt 0.097644 0.654041
vt 0.097644 0.745425
vt 0.027431 0.745429
vt 0.499471 0.093178
vt 0.429259 0.093178
vt 0.429259 0.000000
vt 0.499471 0.000000
vt 0.535243 0.495932
vt 0.535243 0.402754
vt 0.562362 0.418205
vt 0.562362 0.503658
vt 0.352082 0.465894
vt 0.352082 0.372716
vt 0.352082 0.095292
vt 0.281870 0.095288
vt 0.281870 0.000000
vt 0.352082 0.000004
vt 0.352082 0.652251
vt 0.281869 0.652251
vt 0.281869 0.559072
vt 0.352082 0.559072
vt 0.058031 0.095288
vt 0.058031 0.000000
vt 0.116062 0.000000
vt 0.116062 0.095288
vt 0.499471 0.279535
vt 0.429259 0.279535
vt 0.429259 0.186356
vt 0.499471 0.186356
vt 0.562734 0.254571
vt 0.526902 0.220464
vt 0.526902 0.127286
vt 0.562734 0.127286
vt 0.499471 0.372713
vt 0.429259 0.372713
vt 0.174093 0.000000
vt 0.174093 0.095288
vt 0.526902 0.034107
vt 0.562734 0.000000
vt 0.535243 0.572735
vt 0.498745 0.580195
vt 0.501979 0.498275
vt 0.535243 0.491475
vt 0.365683 0.832275
vt 0.365683 0.923659
vt 0.338563 0.931439
vt 0.338563 0.847632
vt 0.352082 0.745429
vt 0.281869 0.745429
vt 0.000000 0.281329
vt 0.000000 0.189945
vt 0.058031 0.189945
vt 0.058031 0.281329
vt 0.222193 0.661101
vt 0.222193 0.755758
vt 0.185404 0.756157
vt 0.185404 0.626852
vt 0.452279 0.741816
vt 0.452279 0.616982
vt 0.467768 0.616983
vt 0.467768 0.741817
vt 0.116062 0.281329
vt 0.116062 0.189945
vt 0.174093 0.189945
vt 0.174093 0.281329
vt 0.467768 0.742248
vt 0.467768 0.614963
vt 0.483256 0.614963
vt 0.483256 0.742248
vt 0.352082 0.281332
vt 0.281870 0.281328
vt 0.281870 0.189945
vt 0.352082 0.189949
vt 0.232124 0.189945
vt 0.232124 0.281329
vt 0.027431 0.468005
vt 0.097644 0.468001
vt 0.097644 0.562657
vt 0.027431 0.562661
vt 0.222193 0.372713
vt 0.222193 0.502018
vt 0.185404 0.501618
vt 0.185404 0.406962
vt 0.391453 0.745429
vt 0.427950 0.752903
vt 0.427950 0.834165
vt 0.394687 0.827352
vt 0.027431 0.372717
vt 0.097644 0.372713
vt 0.147389 0.406820
vt 0.185404 0.372713
vt 0.185404 0.499998
vt 0.147389 0.499998
vt 0.185404 0.627284
vt 0.147389 0.593176
vt 0.147389 0.645680
vt 0.147389 0.728968
vt 0.000000 0.095288
vt 0.232124 0.095288
vt 0.379514 0.644525
vt 0.379514 0.729977
vt 0.352082 0.372716
vt 0.281870 0.372712
vt 0.058031 0.372713
vt 0.116062 0.372713
vt 0.174093 0.372713
vt 0.494887 0.838955
vt 0.494887 0.930338
vt 0.467768 0.914982
vt 0.467768 0.831175
vt 0.222193 0.847142
vt 0.185404 0.880992
vt 0.436790 0.741817
vt 0.436790 0.612512
vt 0.452279 0.612512
vt 0.452279 0.741816
vt 0.483256 0.657325
vt 0.483256 0.530040
vt 0.498745 0.530040
vt 0.498745 0.657325
vt 0.222193 0.626852
vt 0.185404 0.593002
vt 0.158277 0.872714
vt 0.077747 0.872714
vt 0.077747 0.745429
vt 0.158277 0.745429
vt 0.158277 1.000000
vt 0.077747 1.000000
vt 0.000000 0.872714
vt 0.000000 0.745429
vt 0.000000 1.000000
vt 0.483256 0.402754
vt 0.498745 0.402754
vt 0.452279 0.487677
vt 0.467767 0.487678
vt 0.467768 0.487677
vt 0.483256 0.487677
vt 0.436790 0.487678
vt 0.452279 0.487677
vt 0.450599 0.433840
vt 0.483256 0.402754
vt 0.483256 0.487677
vt 0.431385 0.487677
vt 0.431385 0.487677
vt 0.379514 0.487677
vt 0.379514 0.402754
vt 0.412171 0.433840
vt 0.338563 0.832275
vt 0.357924 0.776644
vt 0.391453 0.745429
vt 0.391453 0.832275
vt 0.379514 0.745429
vt 0.379514 0.658582
vt 0.413043 0.689797
vt 0.432403 0.745429
vt 0.379513 0.356203
vt 0.379513 0.271280
vt 0.232124 0.356255
vt 0.232124 0.272967
vt 0.232124 0.728919
vt 0.232124 0.643996
vt 0.379513 0.101433
vt 0.379513 0.016510
vt 0.464446 0.826690
vt 0.427950 0.834165
vt 0.431183 0.752241
vt 0.464446 0.745429
vt 0.505449 0.823498
vt 0.467768 0.831175
vt 0.471106 0.749245
vt 0.505449 0.742248
vt 0.232124 0.103409
vt 0.232124 0.016563
vt 0.541030 0.823515
vt 0.505449 0.830804
vt 0.508602 0.748892
vt 0.541030 0.742248
vt 0.147389 0.389276
vt 0.147389 0.476122
vt 0.498745 0.402754
vt 0.535243 0.410215
vt 0.535243 0.491475
vt 0.501979 0.484675
vt 0.498745 0.580195
vt 0.534325 0.587484
vt 0.534325 0.668751
vt 0.501897 0.662107
vt 0.147389 0.627284
vt 0.185071 0.634960
vt 0.185071 0.716210
vt 0.150727 0.709214
vt 0.232124 0.832817
vt 0.232124 0.745429
vt 0.285344 0.745429
vt 0.285344 0.832817
vt 0.285344 0.832817
vt 0.285344 0.745429
vt 0.338563 0.745429
vt 0.338563 0.832817
vt 0.379514 0.573130
vt 0.431708 0.573130
vt 0.431708 0.658582
vt 0.379514 0.658582
vt 0.431708 0.573130
vt 0.379514 0.573130
vt 0.379514 0.487677
vt 0.431708 0.487677
vt 0.541030 0.835427
vt 0.541030 0.742248
vt 0.568148 0.757700
vt 0.568148 0.843152
vt 0.526902 0.349859
vt 0.526902 0.254571
vt 0.554021 0.270117
vt 0.554021 0.357505
vt 0.158277 0.848363
vt 0.158277 0.753074
vt 0.185396 0.745429
vt 0.185396 0.832817
vt 0.000000 0.730035
vt 0.000000 0.646228
vt 0.526902 0.271809
vt 0.526902 0.357261
vt 0.526902 0.015451
vt 0.526902 0.100904
vt 0.000000 0.475613
vt 0.000000 0.388226
vt 0.379513 0.388167
vt 0.379513 0.473620
vt 0.379513 0.273516
vt 0.379513 0.357323
vt 0.561445 0.580195
vt 0.561445 0.673374
vt 0.534325 0.681099
vt 0.534325 0.595647
vt 0.505449 0.931707
vt 0.505449 0.838529
vt 0.532568 0.830804
vt 0.532568 0.916256
vt 0.379513 0.015513
vt 0.379513 0.102901
vn 0.9793 0.2025 0.0000
vn 0.0000 0.0000 1.0000
vn -1.0000 0.0000 0.0000
vn -0.9851 0.1720 0.0000
vn 1.0000 0.0000 0.0000
vn 0.0000 0.0000 -1.0000
vn 0.0000 -1.0000 0.0000
vn 0.0000 1.0000 0.0000
vn -0.8497 -0.1877 -0.4927
vn 0.0000 0.1740 -0.9847
vn 0.8520 -0.1889 -0.4882
vn 0.0000 0.2015 0.9795
vn 0.9423 -0.3348 0.0000
vn 0.0000 0.1740 0.9847
vn -0.9797 0.2006 0.0000
vn 0.0000 0.2015 -0.9795
vn 0.8520 -0.1889 0.4882
vn -0.4792 -0.1873 0.8575
vn 0.5007 -0.1894 -0.8446
vn -0.8497 -0.1877 0.4927
vn 0.5007 -0.1894 0.8446
vn -0.4792 -0.1873 -0.8575
vn 0.9845 0.1755 -0.0000
vn 0.0000 -0.3332 0.9429
vn -0.9434 -0.3317 0.0000
vn 0.0000 -0.3332 -0.9429
usemtl Material
s off
f 3/1/1 14/2/1 63/3/1 60/4/1
f 46/5/2 42/6/2 7/7/2 8/8/2
f 19/9/3 17/10/3 5/11/3 6/12/3
f 40/13/4 36/14/4 84/15/4 86/16/4
f 16/17/5 14/2/5 3/1/5 4/18/5
f 36/19/6 32/20/6 1/21/6 2/22/6
f 18/23/5 20/24/5 10/25/5 12/26/5
f 40/27/7 18/28/7 12/29/7 38/30/7
f 13/31/3 15/32/3 11/33/3 9/34/3
f 50/35/8 17/36/8 11/37/8 48/38/8
f 8/39/3 7/40/3 15/32/3 13/31/3
f 12/26/5 10/25/5 14/2/5 16/17/5
f 38/30/7 12/29/7 16/41/7 39/42/7
f 48/38/8 11/37/8 15/43/8 49/44/8
f 34/45/9 37/46/9 70/47/9 68/48/9
f 13/49/10 44/50/10 88/51/10 79/52/10
f 2/53/5 1/54/5 20/24/5 18/23/5
f 9/34/3 11/33/3 17/10/3 19/9/3
f 41/55/7 21/56/7 30/57/7 45/58/7
f 32/59/8 24/60/8 29/61/8 35/62/8
f 49/63/6 28/64/6 52/65/6 58/66/6
f 43/67/7 25/68/7 27/69/7 44/70/7
f 34/71/3 33/72/3 54/73/3 55/74/3
f 45/58/7 30/57/7 25/68/7 43/67/7
f 41/75/6 47/76/6 24/77/6 21/78/6
f 44/70/7 27/69/7 23/79/7 46/80/7
f 31/81/2 37/82/2 22/83/2 23/84/2
f 34/85/8 28/86/8 22/87/8 37/88/8
f 42/89/11 49/90/11 73/91/11 71/92/11
f 4/93/2 3/94/2 37/82/2 31/81/2
f 20/95/8 35/96/8 33/97/8 10/98/8
f 10/98/8 33/97/8 34/99/8 14/100/8
f 7/7/12 42/6/12 71/101/12 62/102/12
f 21/56/7 36/103/7 40/27/7 30/57/7
f 25/68/7 38/30/7 39/42/7 27/69/7
f 30/57/7 40/27/7 38/30/7 25/68/7
f 21/78/6 24/77/6 32/20/6 36/19/6
f 27/69/7 39/42/7 31/104/7 23/79/7
f 2/53/13 18/23/13 81/105/13 75/106/13
f 6/107/6 5/108/6 47/76/6 41/75/6
f 19/109/7 45/58/7 43/67/7 9/110/7
f 9/110/7 43/67/7 44/70/7 13/111/7
f 45/112/14 19/113/14 82/114/14 89/115/14
f 24/60/8 47/116/8 50/117/8 29/61/8
f 35/118/2 29/119/2 53/120/2 56/121/2
f 50/122/5 48/123/5 57/124/5 59/125/5
f 23/84/2 22/83/2 42/6/2 46/5/2
f 28/86/8 49/126/8 42/127/8 22/87/8
f 54/128/8 51/129/8 52/130/8 55/131/8
f 56/132/8 53/133/8 51/129/8 54/128/8
f 51/129/8 57/134/8 58/135/8 52/130/8
f 53/133/8 59/136/8 57/134/8 51/129/8
f 48/123/5 49/137/5 58/138/5 57/124/5
f 28/64/6 34/139/6 55/140/6 52/65/6
f 33/72/3 35/141/3 56/142/3 54/73/3
f 29/119/2 50/143/2 59/144/2 53/120/2
f 73/145/8 64/146/8 62/147/8 71/148/8
f 72/149/8 61/150/8 65/151/8 74/152/8
f 63/153/8 68/154/8 70/155/8 60/156/8
f 26/157/8 67/158/8 69/159/8 66/160/8
f 15/32/15 7/40/15 62/161/15 64/162/15
f 47/76/16 5/108/16 61/163/16 72/164/16
f 20/24/1 1/54/1 26/165/1 66/166/1
f 5/11/15 17/10/15 65/167/15 61/168/15
f 50/169/17 47/170/17 72/171/17 74/172/17
f 35/173/18 20/174/18 66/175/18 69/176/18
f 1/21/16 32/20/16 67/177/16 26/178/16
f 49/179/19 15/180/19 64/181/19 73/182/19
f 37/82/12 3/94/12 60/183/12 70/184/12
f 32/185/20 35/186/20 69/187/20 67/188/20
f 17/189/21 50/190/21 74/191/21 65/192/21
f 14/193/22 34/194/22 68/195/22 63/196/22
f 85/197/7 80/198/7 76/199/7 83/200/7
f 84/201/7 75/202/7 81/203/7 86/204/7
f 79/205/7 88/206/7 90/207/7 78/208/7
f 77/209/7 87/210/7 89/211/7 82/212/7
f 44/213/23 46/214/23 90/215/23 88/216/23
f 39/217/10 16/218/10 80/219/10 85/220/10
f 18/221/14 40/222/14 86/223/14 81/224/14
f 46/5/24 8/8/24 78/225/24 90/226/24
f 8/39/25 13/31/25 79/227/25 78/228/25
f 19/9/25 6/12/25 77/229/25 82/230/25
f 4/93/24 31/81/24 83/231/24 76/232/24
f 16/17/13 4/18/13 76/233/13 80/234/13
f 6/107/26 41/75/26 87/235/26 77/236/26
f 31/237/4 39/238/4 85/239/4 83/240/4
f 41/241/23 45/242/23 89/243/23 87/244/23
f 36/19/26 2/22/26 75/245/26 84/246/26
