# Blender v2.82 (sub 7) OBJ File: 'dino.blend'
# www.blender.org
mtllib dino.mtl
o Cube
v 3.738505 1.000000 -1.000000
v 6.369955 -1.204108 -1.408216
v 3.738505 1.000000 1.000000
v 6.369955 -1.204108 1.408216
v -1.044379 -1.204108 -1.408216
v 0.000000 1.000000 1.000000
v -1.044379 -1.204108 1.408216
v 0.000000 1.000000 -1.000000
v 2.662788 -1.204108 1.408216
v 2.662788 -1.204108 -1.408216
v -1.564966 -5.049981 -1.000000
v -1.564966 -5.049981 1.000000
v 1.132058 -5.049981 1.000000
v 1.132058 -5.049981 -1.000000
v -4.174430 -0.349758 -0.739973
v -3.659188 1.037602 0.739973
v -4.174430 -0.349758 0.739973
v -3.659188 1.037602 -0.739973
v -7.395673 -0.436506 -0.739973
v -6.464484 -1.586781 -0.739973
v -7.395673 -0.436506 0.739973
v -6.464484 -1.586781 0.739973
v -4.729015 -0.354264 -1.178243
v -5.881608 0.789182 0.739973
v -4.729015 -0.354264 1.178243
v -5.881608 0.789182 -0.739973
v -5.760229 -1.189068 -1.178243
v -6.638640 0.176338 0.739973
v -5.760229 -1.189068 1.178243
v -6.638640 0.176338 -0.739973
v 5.295098 0.204108 -1.408216
v 5.295098 0.204108 1.408216
v -1.044379 0.204108 -1.408216
v -1.044379 0.204108 1.408216
v -3.916810 0.343922 -0.739973
v -3.916810 0.343922 0.739973
v -6.930079 -1.011644 0.739973
v -6.930079 -1.011644 -0.739973
v -5.363237 0.429176 -1.178243
v -5.363237 0.429176 1.178243
v -6.394451 -0.405628 -1.178243
v -6.394451 -0.405628 1.178243
v -1.564966 -3.024991 -1.000000
v -1.564966 -3.024991 1.000000
v 1.132058 -3.024991 1.000000
v 1.132058 -3.024991 -1.000000
v 3.738505 1.468414 -1.000000
v 3.738505 1.468414 1.000000
v 0.000000 1.468414 1.000000
v 0.000000 1.468414 -1.000000
v -6.495426 1.547417 0.739973
v -6.495426 1.547417 -0.739973
v -7.252458 0.934573 0.739973
v -7.252458 0.934573 -0.739973
v 4.516371 -1.204108 1.408216
v 4.516371 -1.204108 -1.408216
v 6.369955 -5.106409 -1.408216
v 6.369955 -5.106409 1.408216
v 4.516371 -5.106409 1.408216
v 4.516371 -5.106409 -1.408216
v 6.756011 -0.892990 -0.968765
v 6.756011 -0.892990 0.968765
v 5.455938 0.310422 -0.968765
v 5.455938 0.310422 0.968765
v -6.428163 -1.635913 -0.739973
v -6.428163 -1.635913 0.739973
v -4.619302 -0.513872 -1.178243
v -4.619302 -0.513872 1.178243
v -5.700505 -1.282832 -1.178243
v -5.700505 -1.282832 1.178243
vt 0.812500 0.750000
vt 0.812500 0.500000
vt 0.812500 0.500000
vt 0.812500 0.750000
vt 0.187500 0.500000
vt 0.187500 0.750000
vt 0.187500 0.750000
vt 0.187500 0.500000
vt 0.500000 0.500000
vt 0.625000 0.500000
vt 0.625000 0.750000
vt 0.500000 0.750000
vt 0.500000 0.312500
vt 0.625000 0.312500
vt 0.625000 0.375000
vt 0.500000 0.375000
vt 0.250000 0.500000
vt 0.250000 0.750000
vt 0.375000 0.812500
vt 0.375000 0.875000
vt 0.375000 0.875000
vt 0.375000 0.812500
vt 0.250000 0.750000
vt 0.250000 0.500000
vt 0.250000 0.500000
vt 0.250000 0.750000
vt 0.375000 0.500000
vt 0.375000 0.500000
vt 0.375000 0.468750
vt 0.375000 0.468750
vt 0.375000 0.437500
vt 0.375000 0.375000
vt 0.375000 0.375000
vt 0.375000 0.437500
vt 0.375000 0.437500
vt 0.375000 0.375000
vt 0.312500 0.500000
vt 0.312500 0.750000
vt 0.312500 0.750000
vt 0.312500 0.500000
vt 0.375000 0.812500
vt 0.375000 0.875000
vt 0.500000 0.937500
vt 0.625000 0.937500
vt 0.625000 0.937500
vt 0.500000 0.937500
vt 0.375000 0.312500
vt 0.375000 0.312500
vt 0.500000 0.312500
vt 0.500000 0.875000
vt 0.625000 0.875000
vt 0.750000 0.500000
vt 0.750000 0.750000
vt 0.843750 0.500000
vt 0.875000 0.500000
vt 0.875000 0.750000
vt 0.843750 0.750000
vt 0.500000 0.968750
vt 0.625000 0.968750
vt 0.625000 1.000000
vt 0.500000 1.000000
vt 0.750000 0.500000
vt 0.750000 0.750000
vt 0.625000 0.750000
vt 0.625000 0.500000
vt 0.375000 0.968750
vt 0.375000 1.000000
vt 0.375000 1.000000
vt 0.375000 0.968750
vt 0.500000 0.281250
vt 0.625000 0.281250
vt 0.625000 0.312500
vt 0.500000 0.250000
vt 0.625000 0.250000
vt 0.375000 0.000000
vt 0.375000 0.250000
vt 0.375000 0.250000
vt 0.375000 0.000000
vt 0.843750 0.750000
vt 0.843750 0.500000
vt 0.375000 0.937500
vt 0.375000 0.281250
vt 0.375000 0.937500
vt 0.500000 0.000000
vt 0.625000 0.000000
vt 0.375000 0.750000
vt 0.375000 0.500000
vt 0.375000 0.750000
vt 0.312500 0.500000
vt 0.312500 0.750000
vt 0.375000 0.781250
vt 0.375000 0.781250
vt 0.375000 0.750000
vt 0.625000 0.875000
vt 0.625000 0.375000
vt 0.812500 0.500000
vt 0.812500 0.750000
vt 0.625000 0.937500
vt 0.625000 0.968750
vt 0.625000 0.281250
vt 0.625000 0.312500
vt 0.343750 0.500000
vt 0.343750 0.750000
vt 0.343750 0.500000
vt 0.343750 0.750000
vt 0.500000 0.500000
vt 0.500000 0.750000
vt 0.156250 0.500000
vt 0.187500 0.500000
vt 0.187500 0.750000
vt 0.156250 0.750000
vt 0.125000 0.500000
vt 0.125000 0.750000
vt 0.375000 0.312500
vt 0.375000 0.281250
vt 0.375000 0.937500
vn -0.1111 0.9938 0.0000
vn 0.0081 -1.0000 0.0000
vn 0.4552 0.8904 0.0000
vn -0.1217 0.3599 -0.9250
vn -0.2633 -0.9647 0.0000
vn 0.0000 0.0000 1.0000
vn 0.0000 0.4564 -0.8898
vn -1.0000 0.0000 0.0000
vn 0.0000 0.0000 -1.0000
vn 1.0000 0.0000 0.0000
vn 0.0000 -0.2188 0.9758
vn 0.0910 0.4016 0.9113
vn 0.4026 0.1026 -0.9096
vn -0.1217 0.3599 0.9250
vn 0.0103 0.9999 0.0000
vn -0.6292 0.7772 0.0000
vn -0.4016 0.0985 0.9105
vn 0.0000 1.0000 0.0000
vn -0.3974 -0.2671 0.8779
vn -0.3687 0.4555 -0.8103
vn -0.4016 0.0985 -0.9105
vn -0.8041 -0.5945 0.0000
vn -0.3687 0.4555 0.8103
vn -0.7772 -0.6292 0.0000
vn -0.3743 -0.3030 -0.8764
vn -0.3743 -0.3030 0.8764
vn -0.2131 0.0261 0.9767
vn 0.0910 0.4016 -0.9113
vn 0.4026 0.1026 0.9096
vn 0.0000 -1.0000 0.0000
vn -0.2131 0.0261 -0.9767
vn 0.6275 -0.7786 0.0000
vn 0.0000 0.4564 0.8898
vn 0.0000 -0.2188 -0.9758
vn 0.7655 -0.6435 0.0000
vn -0.9615 0.2749 0.0000
vn 0.7772 0.6292 0.0000
vn 0.6793 0.7339 0.0000
vn 0.5834 0.5305 0.6150
vn -0.5514 0.8342 0.0000
vn 0.5834 0.5305 -0.6150
vn 0.5796 -0.8149 0.0000
vn 0.4366 -0.8997 0.0000
vn -0.3974 -0.2671 -0.8779
vn 0.8241 0.5665 0.0000
usemtl Material
s off
f 16/1/1 18/2/1 26/3/1 24/4/1
f 15/5/2 17/6/2 25/7/2 23/8/2
f 31/9/3 1/10/3 3/11/3 32/12/3
f 35/13/4 18/14/4 8/15/4 33/16/4
f 15/5/5 5/17/5 7/18/5 17/6/5
f 45/19/6 44/20/6 12/21/6 13/22/6
f 8/15/7 1/10/7 31/9/7 33/16/7
f 44/23/8 43/24/8 11/25/8 12/26/8
f 33/16/9 31/9/9 2/27/9 57/28/9 60/29/9 56/30/9 10/31/9 5/32/9
f 43/33/9 46/34/9 14/35/9 11/36/9
f 46/37/10 45/38/10 13/39/10 14/40/10
f 9/41/11 7/42/11 44/20/11 45/19/11
f 36/43/12 16/44/12 24/45/12 40/46/12
f 35/13/13 15/47/13 23/48/13 39/49/13
f 34/50/14 6/51/14 16/44/14 36/43/14
f 8/52/15 18/2/15 16/1/15 6/53/15
f 30/54/16 19/55/16 21/56/16 28/57/16
f 42/58/17 28/59/17 21/60/17 37/61/17
f 50/62/18 49/63/18 48/64/18 47/65/18
f 29/66/19 22/67/19 66/68/19 70/69/19
f 41/70/20 30/71/20 26/72/20 39/49/20
f 38/73/21 19/74/21 30/71/21 41/70/21
f 22/75/22 20/76/22 65/77/22 66/78/22
f 40/46/23 24/45/23 28/59/23 42/58/23
f 30/54/24 28/57/24 53/79/24 54/80/24
f 25/81/6 40/46/6 42/58/6 29/66/6
f 20/76/25 38/73/25 41/70/25 27/82/25
f 27/82/9 41/70/9 39/49/9 23/48/9
f 29/66/26 42/58/26 37/61/26 22/67/26
f 7/42/27 34/50/27 36/43/27 17/83/27
f 18/14/28 35/13/28 39/49/28 26/72/28
f 17/83/29 36/43/29 40/46/29 25/81/29
f 11/25/30 14/40/30 13/39/30 12/26/30
f 22/75/24 37/84/24 21/85/24 19/74/24 38/73/24 20/76/24
f 15/47/31 35/13/31 33/16/31 5/32/31
f 4/86/32 2/27/32 61/87/32 62/88/32
f 8/52/8 6/53/8 49/63/8 50/62/8
f 32/12/33 3/11/33 6/51/33 34/50/33
f 5/32/34 10/31/34 46/34/34 43/33/34
f 10/89/35 9/90/35 45/38/35 46/37/35
f 7/18/36 5/17/36 43/24/36 44/23/36
f 4/86/6 32/12/6 34/50/6 7/42/6 9/41/6 55/91/6 59/92/6 58/93/6
f 6/51/6 3/11/6 48/64/6 49/94/6
f 3/11/10 1/10/10 47/65/10 48/64/10
f 8/15/9 50/95/9 47/65/9 1/10/9
f 52/96/16 54/80/16 53/79/16 51/97/16
f 28/59/6 24/45/6 51/98/6 53/99/6
f 24/4/37 26/3/37 52/96/37 51/97/37
f 26/72/9 30/71/9 54/100/9 52/101/9
f 10/89/30 56/102/30 55/103/30 9/90/30
f 60/104/30 57/28/30 58/93/30 59/105/30
f 2/27/10 4/86/10 58/93/10 57/28/10
f 55/103/8 56/102/8 60/104/8 59/105/8
f 61/87/38 63/106/38 64/107/38 62/88/38
f 32/12/39 4/86/39 62/88/39 64/107/39
f 31/9/40 32/12/40 64/107/40 63/106/40
f 2/27/41 31/9/41 63/106/41 61/87/41
f 69/108/42 67/109/42 68/110/42 70/111/42
f 65/112/43 69/108/43 70/111/43 66/113/43
f 27/82/9 23/48/9 67/114/9 69/115/9
f 20/76/44 27/82/44 69/115/44 65/77/44
f 23/8/45 25/7/45 68/110/45 67/109/45
f 25/81/6 29/66/6 70/69/6 68/116/6
