# Blender v2.82 (sub 7) OBJ File: 'sink.blend'
# www.blender.org
mtllib sink.mtl
o Cube
v 1.000000 1.000000 -1.000000
v 1.000000 -1.000000 -1.000000
v 1.000000 1.000000 1.000000
v 1.000000 -1.000000 1.000000
v -1.000000 1.000000 -1.000000
v -1.000000 -1.000000 -1.000000
v -1.000000 1.000000 1.000000
v -1.000000 -1.000000 1.000000
v 0.500000 1.000000 1.000000
v 0.500000 0.000000 1.000000
v -0.500000 1.000000 1.000000
v -0.500000 0.000000 1.000000
v -0.500000 -1.000000 1.000000
v 1.000000 1.000000 0.750000
v -0.500000 -1.000000 0.750000
v -1.000000 1.000000 0.750000
v -1.000000 1.000000 -0.756406
v 1.000000 1.000000 -0.756406
v 0.750000 1.000000 -1.000000
v 0.750000 1.000000 1.000000
v 0.750000 1.000000 0.750000
v 0.750000 -1.000000 0.750000
v 0.750000 1.000000 -0.756406
v 0.750000 -1.000000 -0.756406
v -0.750000 -1.000000 -1.000000
v -0.750000 1.000000 1.000000
v -0.750000 1.000000 -1.000000
v -0.750000 -1.000000 0.750000
v -0.750000 1.000000 0.750000
v -0.750000 -1.000000 -0.756406
v -0.750000 1.000000 -0.756406
v 0.750000 -0.466806 0.750000
v 0.750000 -0.466806 -0.756406
v -0.750000 -0.466806 0.750000
v -0.750000 -0.466806 -0.756406
v 0.500000 0.407914 -0.500000
v -0.500000 0.407914 -0.500000
v 0.500000 0.407914 -0.756406
v -0.500000 0.407914 -0.756406
v 0.750000 0.407914 0.750000
v 0.750000 0.407914 -0.756406
v -0.750000 0.407914 0.750000
v -0.750000 0.407914 -0.756406
v 0.629204 2.107878 -0.629798
v 0.629204 2.107878 0.628610
v -0.629204 2.107878 -0.629798
v -0.629204 2.107878 0.628610
v 0.629204 2.107878 0.471309
v -0.629204 2.107878 0.471309
v -0.629204 2.107878 -0.476528
v 0.629204 2.107878 -0.476528
v 0.471903 2.107878 -0.629798
v 0.471903 2.107878 0.628610
v 0.471903 2.107878 0.471309
v 0.471903 2.107878 -0.476528
v -0.471903 2.107878 0.628610
v -0.471903 2.107878 -0.629798
v -0.471903 2.107878 0.471309
v -0.471903 2.107878 -0.476528
v 0.500000 0.997495 1.170040
v 0.500000 0.002505 1.070059
v -0.500000 0.997495 1.170040
v -0.500000 0.002505 1.070059
v 0.500000 0.525540 -0.505740
v -0.500000 0.525540 -0.505740
v 0.500000 0.601402 -0.750666
v -0.500000 0.601402 -0.750666
v 0.004320 1.000000 0.924770
v 0.224597 1.065204 1.041851
v -0.223803 1.065204 1.041851
v 0.224597 1.045055 1.115395
v -0.223803 1.045055 1.115395
v 0.002334 1.073637 1.009189
v 0.193251 1.103727 1.057010
v -0.192367 1.103727 1.057010
v 0.193251 1.086399 1.120257
v -0.192367 1.086399 1.120257
v 0.002108 1.110980 1.028921
vt 0.535625 0.961903
vt 0.517770 0.951079
vt 0.524391 0.795555
vt 0.535625 0.802366
vt 0.515271 0.376213
vt 0.509606 0.308559
vt 0.509606 0.308559
vt 0.515271 0.376213
vt 0.496444 0.205604
vt 0.451855 0.205604
vt 0.451855 0.000000
vt 0.496444 0.000000
vt 0.517770 0.835686
vt 0.498943 0.835686
vt 0.498943 0.630082
vt 0.517770 0.630082
vt 0.528077 0.239726
vt 0.528077 0.376213
vt 0.515271 0.376213
vt 0.509606 0.308559
vt 0.515271 0.239726
vt 0.000000 0.697458
vt 0.000000 0.424485
vt 0.112964 0.424485
vt 0.112964 0.458607
vt 0.018827 0.458607
vt 0.018827 0.664211
vt 0.131791 0.664211
vt 0.131791 0.697458
vt 0.414201 0.630082
vt 0.301237 0.630082
vt 0.301237 0.424478
vt 0.320064 0.424478
vt 0.320064 0.459474
vt 0.395373 0.459474
vt 0.395373 0.424478
vt 0.414201 0.424478
vt 0.150618 0.424485
vt 0.150618 0.697458
vt 0.131791 0.458607
vt 0.320064 0.272969
vt 0.301237 0.272969
vt 0.301237 0.000000
vt 0.451855 0.000000
vt 0.451855 0.272969
vt 0.433510 0.272969
vt 0.341052 0.424478
vt 0.329206 0.424478
vt 0.320064 0.459474
vt 0.395373 0.459474
vt 0.053099 0.833945
vt 0.070495 0.844496
vt 0.064045 0.999796
vt 0.053099 0.993157
vt 0.498943 0.630082
vt 0.498943 0.835687
vt 0.458789 0.835687
vt 0.458789 0.630082
vt 0.074949 0.902188
vt 0.074949 0.697458
vt 0.119537 0.697458
vt 0.119537 0.902188
vt 0.423976 0.424478
vt 0.412433 0.424478
vt 0.418635 0.630082
vt 0.458789 0.630082
vt 0.458789 0.834812
vt 0.418635 0.834812
vt 0.301237 0.424478
vt 0.301237 0.697450
vt 0.282410 0.697450
vt 0.263582 0.697450
vt 0.263582 0.560964
vt 0.188273 0.560964
vt 0.188273 0.697450
vt 0.169446 0.697450
vt 0.150618 0.697450
vt 0.188273 0.424478
vt 0.395373 0.424478
vt 0.320064 0.424478
vt 0.496444 0.034122
vt 0.496444 0.000000
vt 0.536598 0.000000
vt 0.536598 0.204730
vt 0.496444 0.204730
vt 0.498943 0.630082
vt 0.458789 0.630082
vt 0.458789 0.424478
vt 0.498943 0.424478
vt 0.496445 0.410334
vt 0.451855 0.410334
vt 0.451855 0.376213
vt 0.451855 0.239726
vt 0.451855 0.205604
vt 0.496445 0.205604
vt 0.150618 0.000000
vt 0.150618 0.272968
vt 0.131791 0.272968
vt 0.018827 0.272968
vt 0.000000 0.272968
vt 0.000000 0.000000
vt 0.131791 0.000000
vt 0.169446 0.151509
vt 0.282892 0.151509
vt 0.301237 0.151509
vt 0.301237 0.424478
vt 0.150618 0.151509
vt 0.301237 0.835686
vt 0.301237 0.630082
vt 0.414201 0.630082
vt 0.414201 0.835686
vt 0.444246 0.971299
vt 0.444246 0.834812
vt 0.449523 0.834812
vt 0.449523 0.971299
vt 0.517770 0.424478
vt 0.517770 0.630082
vt 0.498943 0.630082
vt 0.498943 0.424478
vt 0.536115 0.629208
vt 0.517771 0.629208
vt 0.536115 0.424478
vt 0.313083 0.835686
vt 0.324929 0.835686
vt 0.324929 0.857156
vt 0.313083 0.857156
vt 0.348015 0.835686
vt 0.348015 0.857156
vt 0.336472 0.857156
vt 0.336472 0.835686
vt 0.336472 0.835686
vt 0.336472 0.857156
vt 0.324929 0.857156
vt 0.324929 0.835686
vt 0.301237 0.835686
vt 0.313083 0.835686
vt 0.313083 0.857156
vt 0.301237 0.857156
vt 0.035702 0.844496
vt 0.053099 0.833945
vt 0.053099 0.993157
vt 0.042153 0.999796
vt 0.136524 0.864798
vt 0.119537 0.850084
vt 0.136524 0.697458
vt 0.147213 0.706716
vt 0.273313 0.848545
vt 0.261466 0.848545
vt 0.261815 0.000000
vt 0.273357 0.000000
vt 0.039771 0.424485
vt 0.027924 0.424485
vt 0.178587 0.000000
vt 0.190434 0.000000
vt 0.517770 0.640032
vt 0.535625 0.629208
vt 0.535625 0.788745
vt 0.524391 0.795555
vt 0.528078 0.216464
vt 0.545926 0.205604
vt 0.545926 0.364868
vt 0.534696 0.371702
vt 0.035702 1.000000
vt 0.017851 0.989155
vt 0.024470 0.833945
vt 0.035702 0.840769
vt 0.122694 0.424485
vt 0.110848 0.424485
vt 0.000000 0.844790
vt 0.017851 0.833945
vt 0.017851 0.993176
vt 0.006619 1.000000
vt 0.190389 0.848545
vt 0.178543 0.848545
vt 0.444246 0.834812
vt 0.438970 0.970954
vt 0.431441 0.835154
vt 0.431441 0.834812
vt 0.431441 0.971296
vt 0.418635 0.970954
vt 0.426165 0.835154
vt 0.414201 0.630082
vt 0.414201 0.424478
vt 0.458789 0.424478
vt 0.458789 0.630082
vt 0.451855 0.376213
vt 0.451855 0.239726
vt 0.074949 0.697458
vt 0.074949 0.833945
vt 0.000000 0.833945
vt 0.000000 0.697458
vt 0.515271 0.410334
vt 0.496444 0.410334
vt 0.515271 0.205604
vt 0.515271 0.239726
vt 0.074949 0.697458
vt 0.074949 0.833945
vt 0.515271 0.239726
vt 0.431441 0.971296
vt 0.418635 0.970954
vt 0.431441 0.835154
vt 0.444246 0.834812
vt 0.431441 0.835154
vt 0.444246 0.834812
vt 0.431441 0.971296
vt 0.418635 0.970954
vt 0.074949 0.697458
vt 0.074949 0.833945
vn 0.0000 -0.2449 0.9695
vn 0.1030 0.7740 -0.6248
vn 1.0000 0.0000 0.0000
vn 0.0000 1.0000 0.0000
vn 0.0000 0.9652 0.2617
vn 0.0000 -1.0000 0.0000
vn 0.9483 0.3174 0.0000
vn 0.0000 0.0487 0.9988
vn -0.9699 -0.2435 0.0000
vn 0.0000 0.0000 -1.0000
vn 0.0000 0.0000 1.0000
vn 0.0000 0.9552 0.2959
vn -1.0000 0.0000 0.0000
vn 0.0000 -0.9994 0.0357
vn 0.9699 -0.2435 0.0000
vn 0.0000 0.3178 0.9481
vn -0.9483 0.3174 0.0000
vn 0.0000 0.3169 -0.9484
vn 0.0000 -0.2440 -0.9698
vn 0.0000 0.0297 -0.9996
vn 0.0000 -0.1000 0.9950
vn 0.0000 0.7543 0.6565
vn -0.1436 0.4617 -0.8753
vn 0.1977 0.9760 0.0908
vn -0.1972 0.9762 0.0908
vn -0.1016 0.7717 -0.6278
vn -0.7947 0.5854 0.1604
vn 0.1460 0.4629 -0.8743
vn 0.7956 0.5843 0.1601
vn 0.0000 -0.1168 0.9932
usemtl Material
s off
f 17/1/1 31/2/1 59/3/1 50/4/1
f 9/5/2 68/6/2 73/7/2 69/8/2
f 29/9/3 42/10/3 43/11/3 31/12/3
f 16/13/4 29/14/4 31/15/4 17/16/4
f 77/17/5 76/18/5 74/19/5 78/20/5 75/21/5
f 2/22/6 4/23/6 13/24/6 15/25/6 22/26/6 24/27/6 30/28/6 25/29/6
f 42/30/4 40/31/4 41/32/4 38/33/4 36/34/4 37/35/4 39/36/4 43/37/4
f 13/24/6 8/38/6 6/39/6 25/29/6 30/28/6 28/40/6 15/25/6
f 14/41/3 3/42/3 4/43/3 2/44/3 1/45/3 18/46/3
f 3/42/7 14/41/7 48/47/7 45/48/7
f 37/35/8 36/34/8 64/49/8 65/50/8
f 19/51/9 23/52/9 55/53/9 52/54/9
f 28/55/3 30/56/3 35/57/3 34/58/3
f 29/59/10 21/60/10 40/61/10 42/62/10
f 18/46/7 1/45/7 44/63/7 51/64/7
f 24/65/11 33/66/11 35/67/11 30/68/11
f 4/69/11 3/70/11 20/71/11 9/72/11 10/73/11 12/74/11 11/75/11 26/76/11 7/77/11 8/38/11 13/78/11
f 67/79/12 65/50/12 64/49/12 66/80/12
f 15/81/10 28/82/10 34/83/10 32/84/10 22/85/10
f 22/86/13 32/87/13 33/88/13 24/89/13
f 31/90/11 43/91/11 39/92/11 38/93/11 41/94/11 23/95/11
f 6/96/10 5/97/10 27/98/10 19/99/10 1/100/10 2/101/10 25/102/10
f 16/103/13 17/104/13 5/105/13 6/106/13 8/38/13 7/107/13
f 33/108/6 32/109/6 34/110/6 35/111/6
f 12/112/14 10/113/14 61/114/14 63/115/14
f 23/116/4 21/117/4 14/118/4 18/119/4
f 27/120/4 31/121/4 23/116/4 19/122/4
f 58/123/4 49/124/4 47/125/4 56/126/4
f 57/127/4 46/128/4 50/129/4 59/130/4
f 44/131/4 52/132/4 55/133/4 51/134/4
f 48/135/4 54/136/4 53/137/4 45/138/4
f 31/139/15 27/140/15 57/141/15 59/142/15
f 26/143/15 29/144/15 58/145/15 56/146/15
f 20/71/16 3/70/16 45/147/16 53/148/16
f 5/105/17 17/104/17 50/149/17 46/150/17
f 1/100/18 19/99/18 52/151/18 44/152/18
f 16/103/17 7/107/17 47/153/17 49/154/17
f 23/155/1 18/156/1 51/157/1 55/158/1
f 21/159/9 20/160/9 53/161/9 54/162/9
f 14/163/19 21/164/19 54/165/19 48/166/19
f 27/98/18 5/97/18 46/167/18 57/168/18
f 29/169/19 16/170/19 49/171/19 58/172/19
f 7/77/16 26/76/16 56/173/16 47/174/16
f 11/175/13 12/112/13 63/176/13 62/177/13
f 10/178/3 9/179/3 60/180/3 61/181/3
f 21/182/13 23/183/13 41/184/13 40/185/13
f 39/36/13 37/35/13 65/50/13 67/79/13
f 36/34/3 38/33/3 66/80/3 64/49/3
f 39/92/20 67/186/20 66/187/20 38/93/20
f 60/188/21 62/189/21 63/190/21 61/191/21
f 9/5/4 20/192/4 21/193/4 29/9/4 26/194/4 11/195/4 68/6/4
f 62/189/22 60/188/22 71/196/22 72/197/22
f 73/7/23 70/198/23 75/21/23 78/20/23
f 60/180/24 9/179/24 69/199/24 71/200/24
f 11/175/25 62/177/25 72/201/25 70/202/25
f 68/6/26 11/195/26 70/198/26 73/7/26
f 70/202/27 72/201/27 77/203/27 75/204/27
f 69/8/28 73/7/28 78/20/28 74/19/28
f 71/200/29 69/199/29 74/205/29 76/206/29
f 72/197/30 71/196/30 76/207/30 77/208/30
