# Blender v2.82 (sub 7) OBJ File: 'watertower.blend'
# www.blender.org
mtllib watertower.mtl
o Cone
v 0.000000 0.200279 -2.041288
v 0.398236 0.200279 -2.002065
v 0.781167 0.200279 -1.885905
v 1.134079 0.200279 -1.697269
v 1.443409 0.200279 -1.443409
v 1.697269 0.200279 -1.134079
v 1.885905 0.200279 -0.781167
v 2.002065 0.200279 -0.398236
v 2.041288 0.200279 -0.000000
v 2.002066 0.200279 0.398235
v 1.885905 0.200279 0.781167
v 1.697269 0.200279 1.134079
v 1.443409 0.200279 1.443409
v 1.134079 0.200279 1.697269
v 0.781167 0.200279 1.885905
v 0.398235 0.200279 2.002066
v -0.000001 0.200279 2.041288
v -0.398236 0.200279 2.002065
v -0.781168 0.200279 1.885904
v -1.134080 0.200279 1.697269
v -1.443410 0.200279 1.443408
v -1.697270 0.200279 1.134078
v -1.885905 0.200279 0.781166
v 0.000000 1.748196 0.000000
v -2.002066 0.200279 0.398234
v -2.041288 0.200279 -0.000002
v -2.002065 0.200279 -0.398238
v -1.885904 0.200279 -0.781169
v -1.697268 0.200279 -1.134081
v -1.443407 0.200279 -1.443411
v -1.134077 0.200279 -1.697271
v -0.781164 0.200279 -1.885906
v -0.398233 0.200279 -2.002066
v 0.000000 -3.528654 -1.416329
v 0.000000 0.182991 -1.416329
v 0.276312 -3.528654 -1.389114
v 0.276312 0.182991 -1.389114
v 0.542006 -3.528654 -1.308517
v 0.542006 0.182991 -1.308517
v 0.786870 -3.528654 -1.177634
v 0.786870 0.182991 -1.177634
v 1.001496 -3.528654 -1.001496
v 1.001496 0.182991 -1.001496
v 1.177634 -3.528654 -0.786870
v 1.177634 0.182991 -0.786870
v 1.308517 -3.528654 -0.542006
v 1.308517 0.182991 -0.542006
v 1.389114 -3.528654 -0.276312
v 1.389114 0.182991 -0.276312
v 1.416329 -3.528654 -0.000000
v 1.416329 0.182991 -0.000000
v 1.389114 -3.528654 0.276312
v 1.389114 0.182991 0.276312
v 1.308517 -3.528654 0.542005
v 1.308517 0.182991 0.542005
v 1.177634 -3.528654 0.786870
v 1.177634 0.182991 0.786870
v 1.001496 -3.528654 1.001496
v 1.001496 0.182991 1.001496
v 0.786870 -3.528654 1.177634
v 0.786870 0.182991 1.177634
v 0.542005 -3.528654 1.308517
v 0.542005 0.182991 1.308517
v 0.276312 -3.528654 1.389114
v 0.276312 0.182991 1.389114
v -0.000000 -3.528654 1.416329
v -0.000000 0.182991 1.416329
v -0.276313 -3.528654 1.389114
v -0.276313 0.182991 1.389114
v -0.542006 -3.528654 1.308517
v -0.542006 0.182991 1.308517
v -0.786871 -3.528654 1.177634
v -0.786871 0.182991 1.177634
v -1.001496 -3.528654 1.001495
v -1.001496 0.182991 1.001495
v -1.177635 -3.528654 0.786869
v -1.177635 0.182991 0.786869
v -1.308518 -3.528654 0.542004
v -1.308518 0.182991 0.542004
v -1.389115 -3.528654 0.276311
v -1.389115 0.182991 0.276311
v -1.416329 -3.528654 -0.000001
v -1.416329 0.182991 -0.000001
v -1.389114 -3.528654 -0.276314
v -1.389114 0.182991 -0.276314
v -1.308517 -3.528654 -0.542007
v -1.308517 0.182991 -0.542007
v -1.177633 -3.528654 -0.786872
v -1.177633 0.182991 -0.786872
v -1.001494 -3.528654 -1.001497
v -1.001494 0.182991 -1.001497
v -0.786869 -3.528654 -1.177635
v -0.786869 0.182991 -1.177635
v -0.542004 -3.528654 -1.308518
v -0.542004 0.182991 -1.308518
v -0.276310 -3.528654 -1.389115
v -0.276310 0.182991 -1.389115
v -1.376779 -5.781671 1.260803
v -1.376779 -2.994116 1.260803
v -1.376779 -5.781671 0.961566
v -1.376779 -2.994116 0.961566
v -1.077542 -5.781671 1.260803
v -1.077542 -2.994116 1.260803
v -1.077542 -5.781671 0.961566
v -1.077542 -2.994116 0.961566
v 1.079333 -5.781671 -0.941298
v 1.079333 -2.994116 -0.941298
v 1.079333 -5.781671 -1.240536
v 1.079333 -2.994116 -1.240536
v 1.378570 -5.781671 -0.941298
v 1.378570 -2.994116 -0.941298
v 1.378570 -5.781671 -1.240536
v 1.378570 -2.994116 -1.240536
v -1.376779 -5.781671 -0.941298
v -1.376779 -2.994116 -0.941298
v -1.376779 -5.781671 -1.240536
v -1.376779 -2.994116 -1.240536
v -1.077542 -5.781671 -0.941298
v -1.077542 -2.994116 -0.941298
v -1.077542 -5.781671 -1.240536
v -1.077542 -2.994116 -1.240536
v 1.079333 -5.781671 1.260803
v 1.079333 -2.994116 1.260803
v 1.079333 -5.781671 0.961566
v 1.079333 -2.994116 0.961566
v 1.378570 -5.781671 1.260803
v 1.378570 -2.994116 1.260803
v 1.378570 -5.781671 0.961566
v 1.378570 -2.994116 0.961566
v -1.563751 -3.294483 1.563751
v -1.563751 -3.726899 1.563751
v -1.563751 -3.294483 -1.563751
v -1.563751 -3.726899 -1.563751
v 1.563751 -3.294483 1.563751
v 1.563751 -3.726899 1.563751
v 1.563751 -3.294483 -1.563751
v 1.563751 -3.726899 -1.563751
vt 0.250000 0.490000
vt 0.250000 0.250000
vt 0.296822 0.485388
vt 0.341844 0.471731
vt 0.383337 0.449553
vt 0.419706 0.419706
vt 0.449553 0.383337
vt 0.471731 0.341844
vt 0.485388 0.296822
vt 0.490000 0.250000
vt 0.485388 0.203178
vt 0.471731 0.158156
vt 0.449553 0.116663
vt 0.419706 0.080294
vt 0.383337 0.050447
vt 0.341844 0.028269
vt 0.296822 0.014612
vt 0.250000 0.010000
vt 0.203178 0.014612
vt 0.158156 0.028269
vt 0.116663 0.050447
vt 0.080294 0.080294
vt 0.050447 0.116663
vt 0.028269 0.158156
vt 0.014611 0.203179
vt 0.010000 0.250000
vt 0.014612 0.296822
vt 0.028269 0.341844
vt 0.050447 0.383337
vt 0.080295 0.419706
vt 0.116663 0.449553
vt 0.158156 0.471731
vt 0.203179 0.485389
vt 0.750000 0.490000
vt 0.796822 0.485388
vt 0.841844 0.471731
vt 0.883337 0.449553
vt 0.919706 0.419706
vt 0.949553 0.383337
vt 0.971731 0.341844
vt 0.985388 0.296822
vt 0.990000 0.250000
vt 0.985388 0.203178
vt 0.971731 0.158156
vt 0.949553 0.116663
vt 0.919706 0.080294
vt 0.883337 0.050447
vt 0.841844 0.028269
vt 0.796822 0.014612
vt 0.750000 0.010000
vt 0.703178 0.014612
vt 0.658156 0.028269
vt 0.616663 0.050447
vt 0.580294 0.080294
vt 0.550447 0.116663
vt 0.528269 0.158156
vt 0.514611 0.203179
vt 0.510000 0.250000
vt 0.514612 0.296822
vt 0.528269 0.341844
vt 0.550447 0.383337
vt 0.580295 0.419706
vt 0.616663 0.449553
vt 0.658156 0.471731
vt 0.703179 0.485389
vt 1.000000 0.500000
vt 1.000000 1.000000
vt 0.968750 1.000000
vt 0.968750 0.500000
vt 0.937500 1.000000
vt 0.937500 0.500000
vt 0.906250 1.000000
vt 0.906250 0.500000
vt 0.875000 1.000000
vt 0.875000 0.500000
vt 0.843750 1.000000
vt 0.843750 0.500000
vt 0.812500 1.000000
vt 0.812500 0.500000
vt 0.781250 1.000000
vt 0.781250 0.500000
vt 0.750000 1.000000
vt 0.750000 0.500000
vt 0.718750 1.000000
vt 0.718750 0.500000
vt 0.687500 1.000000
vt 0.687500 0.500000
vt 0.656250 1.000000
vt 0.656250 0.500000
vt 0.625000 1.000000
vt 0.625000 0.500000
vt 0.593750 1.000000
vt 0.593750 0.500000
vt 0.562500 1.000000
vt 0.562500 0.500000
vt 0.531250 1.000000
vt 0.531250 0.500000
vt 0.500000 1.000000
vt 0.500000 0.500000
vt 0.468750 1.000000
vt 0.468750 0.500000
vt 0.437500 1.000000
vt 0.437500 0.500000
vt 0.406250 1.000000
vt 0.406250 0.500000
vt 0.375000 1.000000
vt 0.375000 0.500000
vt 0.343750 1.000000
vt 0.343750 0.500000
vt 0.312500 1.000000
vt 0.312500 0.500000
vt 0.281250 1.000000
vt 0.281250 0.500000
vt 0.250000 1.000000
vt 0.250000 0.500000
vt 0.218750 1.000000
vt 0.218750 0.500000
vt 0.187500 1.000000
vt 0.187500 0.500000
vt 0.156250 1.000000
vt 0.156250 0.500000
vt 0.125000 1.000000
vt 0.125000 0.500000
vt 0.093750 1.000000
vt 0.093750 0.500000
vt 0.062500 1.000000
vt 0.062500 0.500000
vt 0.296822 0.485388
vt 0.250000 0.490000
vt 0.203179 0.485389
vt 0.158156 0.471731
vt 0.116663 0.449553
vt 0.080295 0.419706
vt 0.050447 0.383337
vt 0.028269 0.341844
vt 0.014612 0.296822
vt 0.010000 0.250000
vt 0.014611 0.203179
vt 0.028269 0.158156
vt 0.050447 0.116663
vt 0.080294 0.080294
vt 0.116663 0.050447
vt 0.158156 0.028269
vt 0.203178 0.014612
vt 0.250000 0.010000
vt 0.296822 0.014612
vt 0.341844 0.028269
vt 0.383337 0.050447
vt 0.419706 0.080294
vt 0.449553 0.116663
vt 0.471731 0.158156
vt 0.485388 0.203178
vt 0.490000 0.250000
vt 0.485388 0.296822
vt 0.471731 0.341844
vt 0.449553 0.383337
vt 0.419706 0.419706
vt 0.383337 0.449553
vt 0.341844 0.471731
vt 0.031250 1.000000
vt 0.031250 0.500000
vt 0.000000 1.000000
vt 0.000000 0.500000
vt 0.750000 0.490000
vt 0.796822 0.485388
vt 0.841844 0.471731
vt 0.883337 0.449553
vt 0.919706 0.419706
vt 0.949553 0.383337
vt 0.971731 0.341844
vt 0.985388 0.296822
vt 0.990000 0.250000
vt 0.985388 0.203178
vt 0.971731 0.158156
vt 0.949553 0.116663
vt 0.919706 0.080294
vt 0.883337 0.050447
vt 0.841844 0.028269
vt 0.796822 0.014612
vt 0.750000 0.010000
vt 0.703178 0.014612
vt 0.658156 0.028269
vt 0.616663 0.050447
vt 0.580294 0.080294
vt 0.550447 0.116663
vt 0.528269 0.158156
vt 0.514611 0.203179
vt 0.510000 0.250000
vt 0.514612 0.296822
vt 0.528269 0.341844
vt 0.550447 0.383337
vt 0.580295 0.419706
vt 0.616663 0.449553
vt 0.658156 0.471731
vt 0.703179 0.485389
vt 0.375000 0.000000
vt 0.625000 0.000000
vt 0.625000 0.250000
vt 0.375000 0.250000
vt 0.625000 0.500000
vt 0.375000 0.500000
vt 0.625000 0.750000
vt 0.375000 0.750000
vt 0.625000 1.000000
vt 0.375000 1.000000
vt 0.125000 0.500000
vt 0.125000 0.750000
vt 0.875000 0.500000
vt 0.875000 0.750000
vt 0.375000 0.000000
vt 0.625000 0.000000
vt 0.625000 0.250000
vt 0.375000 0.250000
vt 0.625000 0.500000
vt 0.375000 0.500000
vt 0.625000 0.750000
vt 0.375000 0.750000
vt 0.625000 1.000000
vt 0.375000 1.000000
vt 0.125000 0.500000
vt 0.125000 0.750000
vt 0.875000 0.500000
vt 0.875000 0.750000
vt 0.375000 0.000000
vt 0.625000 0.000000
vt 0.625000 0.250000
vt 0.375000 0.250000
vt 0.625000 0.500000
vt 0.375000 0.500000
vt 0.625000 0.750000
vt 0.375000 0.750000
vt 0.625000 1.000000
vt 0.375000 1.000000
vt 0.125000 0.500000
vt 0.125000 0.750000
vt 0.875000 0.500000
vt 0.875000 0.750000
vt 0.375000 0.000000
vt 0.625000 0.000000
vt 0.625000 0.250000
vt 0.375000 0.250000
vt 0.625000 0.500000
vt 0.375000 0.500000
vt 0.625000 0.750000
vt 0.375000 0.750000
vt 0.625000 1.000000
vt 0.375000 1.000000
vt 0.125000 0.500000
vt 0.125000 0.750000
vt 0.875000 0.500000
vt 0.875000 0.750000
vt 0.375000 0.000000
vt 0.625000 0.000000
vt 0.625000 0.250000
vt 0.375000 0.250000
vt 0.625000 0.500000
vt 0.375000 0.500000
vt 0.625000 0.750000
vt 0.375000 0.750000
vt 0.625000 1.000000
vt 0.375000 1.000000
vt 0.125000 0.500000
vt 0.125000 0.750000
vt 0.875000 0.500000
vt 0.875000 0.750000
vn 0.0594 0.7954 -0.6032
vn 0.1759 0.7954 -0.5800
vn 0.2857 0.7954 -0.5345
vn 0.3845 0.7954 -0.4685
vn 0.4685 0.7954 -0.3845
vn 0.5345 0.7954 -0.2857
vn 0.5800 0.7954 -0.1759
vn 0.6032 0.7954 -0.0594
vn 0.6032 0.7954 0.0594
vn 0.5800 0.7954 0.1759
vn 0.5345 0.7954 0.2857
vn 0.4685 0.7954 0.3845
vn 0.3845 0.7954 0.4685
vn 0.2857 0.7954 0.5345
vn 0.1759 0.7954 0.5800
vn 0.0594 0.7954 0.6032
vn -0.0594 0.7954 0.6032
vn -0.1759 0.7954 0.5800
vn -0.2857 0.7954 0.5345
vn -0.3845 0.7954 0.4685
vn -0.4685 0.7954 0.3845
vn -0.5345 0.7954 0.2857
vn -0.5800 0.7954 0.1759
vn -0.6032 0.7954 0.0594
vn -0.6032 0.7954 -0.0594
vn -0.5800 0.7954 -0.1759
vn -0.5345 0.7954 -0.2857
vn -0.4685 0.7954 -0.3845
vn -0.3845 0.7954 -0.4685
vn -0.2857 0.7954 -0.5345
vn -0.1759 0.7954 -0.5800
vn -0.0594 0.7954 -0.6032
vn 0.0000 -1.0000 -0.0000
vn 0.0980 0.0000 -0.9952
vn 0.2903 0.0000 -0.9569
vn 0.4714 0.0000 -0.8819
vn 0.6344 0.0000 -0.7730
vn 0.7730 0.0000 -0.6344
vn 0.8819 0.0000 -0.4714
vn 0.9569 0.0000 -0.2903
vn 0.9952 0.0000 -0.0980
vn 0.9952 0.0000 0.0980
vn 0.9569 0.0000 0.2903
vn 0.8819 0.0000 0.4714
vn 0.7730 0.0000 0.6344
vn 0.6344 0.0000 0.7730
vn 0.4714 0.0000 0.8819
vn 0.2903 0.0000 0.9569
vn 0.0980 0.0000 0.9952
vn -0.0980 0.0000 0.9952
vn -0.2903 0.0000 0.9569
vn -0.4714 0.0000 0.8819
vn -0.6344 0.0000 0.7730
vn -0.7730 0.0000 0.6344
vn -0.8819 0.0000 0.4714
vn -0.9569 0.0000 0.2903
vn -0.9952 0.0000 0.0980
vn -0.9952 0.0000 -0.0980
vn -0.9569 0.0000 -0.2903
vn -0.8819 0.0000 -0.4714
vn -0.7730 0.0000 -0.6344
vn -0.6344 0.0000 -0.7730
vn -0.4714 0.0000 -0.8819
vn 0.0000 1.0000 0.0000
vn -0.2903 0.0000 -0.9569
vn -0.0980 0.0000 -0.9952
vn -1.0000 0.0000 0.0000
vn 0.0000 0.0000 -1.0000
vn 1.0000 0.0000 0.0000
vn 0.0000 0.0000 1.0000
usemtl Material.001
s off
f 1/1/1 24/2/1 2/3/1
f 2/3/2 24/2/2 3/4/2
f 3/4/3 24/2/3 4/5/3
f 4/5/4 24/2/4 5/6/4
f 5/6/5 24/2/5 6/7/5
f 6/7/6 24/2/6 7/8/6
f 7/8/7 24/2/7 8/9/7
f 8/9/8 24/2/8 9/10/8
f 9/10/9 24/2/9 10/11/9
f 10/11/10 24/2/10 11/12/10
f 11/12/11 24/2/11 12/13/11
f 12/13/12 24/2/12 13/14/12
f 13/14/13 24/2/13 14/15/13
f 14/15/14 24/2/14 15/16/14
f 15/16/15 24/2/15 16/17/15
f 16/17/16 24/2/16 17/18/16
f 17/18/17 24/2/17 18/19/17
f 18/19/18 24/2/18 19/20/18
f 19/20/19 24/2/19 20/21/19
f 20/21/20 24/2/20 21/22/20
f 21/22/21 24/2/21 22/23/21
f 22/23/22 24/2/22 23/24/22
f 23/24/23 24/2/23 25/25/23
f 25/25/24 24/2/24 26/26/24
f 26/26/25 24/2/25 27/27/25
f 27/27/26 24/2/26 28/28/26
f 28/28/27 24/2/27 29/29/27
f 29/29/28 24/2/28 30/30/28
f 30/30/29 24/2/29 31/31/29
f 31/31/30 24/2/30 32/32/30
f 32/32/31 24/2/31 33/33/31
f 33/33/32 24/2/32 1/1/32
f 1/34/33 2/35/33 3/36/33 4/37/33 5/38/33 6/39/33 7/40/33 8/41/33 9/42/33 10/43/33 11/44/33 12/45/33 13/46/33 14/47/33 15/48/33 16/49/33 17/50/33 18/51/33 19/52/33 20/53/33 21/54/33 22/55/33 23/56/33 25/57/33 26/58/33 27/59/33 28/60/33 29/61/33 30/62/33 31/63/33 32/64/33 33/65/33
f 34/66/34 35/67/34 37/68/34 36/69/34
f 36/69/35 37/68/35 39/70/35 38/71/35
f 38/71/36 39/70/36 41/72/36 40/73/36
f 40/73/37 41/72/37 43/74/37 42/75/37
f 42/75/38 43/74/38 45/76/38 44/77/38
f 44/77/39 45/76/39 47/78/39 46/79/39
f 46/79/40 47/78/40 49/80/40 48/81/40
f 48/81/41 49/80/41 51/82/41 50/83/41
f 50/83/42 51/82/42 53/84/42 52/85/42
f 52/85/43 53/84/43 55/86/43 54/87/43
f 54/87/44 55/86/44 57/88/44 56/89/44
f 56/89/45 57/88/45 59/90/45 58/91/45
f 58/91/46 59/90/46 61/92/46 60/93/46
f 60/93/47 61/92/47 63/94/47 62/95/47
f 62/95/48 63/94/48 65/96/48 64/97/48
f 64/97/49 65/96/49 67/98/49 66/99/49
f 66/99/50 67/98/50 69/100/50 68/101/50
f 68/101/51 69/100/51 71/102/51 70/103/51
f 70/103/52 71/102/52 73/104/52 72/105/52
f 72/105/53 73/104/53 75/106/53 74/107/53
f 74/107/54 75/106/54 77/108/54 76/109/54
f 76/109/55 77/108/55 79/110/55 78/111/55
f 78/111/56 79/110/56 81/112/56 80/113/56
f 80/113/57 81/112/57 83/114/57 82/115/57
f 82/115/58 83/114/58 85/116/58 84/117/58
f 84/117/59 85/116/59 87/118/59 86/119/59
f 86/119/60 87/118/60 89/120/60 88/121/60
f 88/121/61 89/120/61 91/122/61 90/123/61
f 90/123/62 91/122/62 93/124/62 92/125/62
f 92/125/63 93/124/63 95/126/63 94/127/63
f 37/128/64 35/129/64 97/130/64 95/131/64 93/132/64 91/133/64 89/134/64 87/135/64 85/136/64 83/137/64 81/138/64 79/139/64 77/140/64 75/141/64 73/142/64 71/143/64 69/144/64 67/145/64 65/146/64 63/147/64 61/148/64 59/149/64 57/150/64 55/151/64 53/152/64 51/153/64 49/154/64 47/155/64 45/156/64 43/157/64 41/158/64 39/159/64
f 94/127/65 95/126/65 97/160/65 96/161/65
f 96/161/66 97/160/66 35/162/66 34/163/66
f 34/164/33 36/165/33 38/166/33 40/167/33 42/168/33 44/169/33 46/170/33 48/171/33 50/172/33 52/173/33 54/174/33 56/175/33 58/176/33 60/177/33 62/178/33 64/179/33 66/180/33 68/181/33 70/182/33 72/183/33 74/184/33 76/185/33 78/186/33 80/187/33 82/188/33 84/189/33 86/190/33 88/191/33 90/192/33 92/193/33 94/194/33 96/195/33
f 98/196/67 99/197/67 101/198/67 100/199/67
f 100/199/68 101/198/68 105/200/68 104/201/68
f 104/201/69 105/200/69 103/202/69 102/203/69
f 102/203/70 103/202/70 99/204/70 98/205/70
f 100/206/33 104/201/33 102/203/33 98/207/33
f 105/200/64 101/208/64 99/209/64 103/202/64
f 106/210/67 107/211/67 109/212/67 108/213/67
f 108/213/68 109/212/68 113/214/68 112/215/68
f 112/215/69 113/214/69 111/216/69 110/217/69
f 110/217/70 111/216/70 107/218/70 106/219/70
f 108/220/33 112/215/33 110/217/33 106/221/33
f 113/214/64 109/222/64 107/223/64 111/216/64
f 114/224/67 115/225/67 117/226/67 116/227/67
f 116/227/68 117/226/68 121/228/68 120/229/68
f 120/229/69 121/228/69 119/230/69 118/231/69
f 118/231/70 119/230/70 115/232/70 114/233/70
f 116/234/33 120/229/33 118/231/33 114/235/33
f 121/228/64 117/236/64 115/237/64 119/230/64
f 122/238/67 123/239/67 125/240/67 124/241/67
f 124/241/68 125/240/68 129/242/68 128/243/68
f 128/243/69 129/242/69 127/244/69 126/245/69
f 126/245/70 127/244/70 123/246/70 122/247/70
f 124/248/33 128/243/33 126/245/33 122/249/33
f 129/242/64 125/250/64 123/251/64 127/244/64
f 130/252/69 131/253/69 133/254/69 132/255/69
f 132/255/70 133/254/70 137/256/70 136/257/70
f 136/257/67 137/256/67 135/258/67 134/259/67
f 134/259/68 135/258/68 131/260/68 130/261/68
f 132/262/33 136/257/33 134/259/33 130/263/33
f 137/256/64 133/264/64 131/265/64 135/258/64
