{
	"asset":{
		"generator":"Khronos glTF Blender I/O v4.1.63",
		"version":"2.0"
	},
	"extensionsUsed":[
		"KHR_materials_specular",
		"KHR_materials_ior"
	],
	"scene":0,
	"scenes":[
		{
			"name":"Scene",
			"nodes":[
				0,
				1
			]
		}
	],
	"nodes":[
		{
			"name":"Empty",
			"rotation":[
				0.5,
				0.5,
				-0.5,
				0.5
			]
		},
		{
			"mesh":0,
			"name":"Pistol3"
		}
	],
	"materials":[
		{
			"doubleSided":true,
			"extensions":{
				"KHR_materials_specular":{
					"specularFactor":0.22727274894714355
				},
				"KHR_materials_ior":{
					"ior":1.4500000476837158
				}
			},
			"name":"Gun",
			"normalTexture":{
				"index":0
			},
			"pbrMetallicRoughness":{
				"baseColorTexture":{
					"index":1
				},
				"metallicFactor":0.5,
				"roughnessFactor":0.4636363685131073
			}
		}
	],
	"meshes":[
		{
			"name":"Cube.004",
			"primitives":[
				{
					"attributes":{
						"POSITION":0,
						"NORMAL":1,
						"TEXCOORD_0":2
					},
					"indices":3,
					"material":0
				}
			]
		}
	],
	"textures":[
		{
			"sampler":0,
			"source":0
		},
		{
			"sampler":0,
			"source":0
		}
	],
	"images":[
		{
			"mimeType":"image/png",
			"name":"marinestheydieforyoumarines",
			"uri":"marinestheydieforyoumarines.png"
		}
	],
	"accessors":[
		{
			"bufferView":0,
			"componentType":5126,
			"count":2415,
			"max":[
				0.07569444924592972,
				0.28022047877311707,
				0.5375068187713623
			],
			"min":[
				-0.07505880296230316,
				-0.5082137584686279,
				-0.5681387782096863
			],
			"type":"VEC3"
		},
		{
			"bufferView":1,
			"componentType":5126,
			"count":2415,
			"type":"VEC3"
		},
		{
			"bufferView":2,
			"componentType":5126,
			"count":2415,
			"type":"VEC2"
		},
		{
			"bufferView":3,
			"componentType":5123,
			"count":4191,
			"type":"SCALAR"
		}
	],
	"bufferViews":[
		{
			"buffer":0,
			"byteLength":28980,
			"byteOffset":0,
			"target":34962
		},
		{
			"buffer":0,
			"byteLength":28980,
			"byteOffset":28980,
			"target":34962
		},
		{
			"buffer":0,
			"byteLength":19320,
			"byteOffset":57960,
			"target":34962
		},
		{
			"buffer":0,
			"byteLength":8382,
			"byteOffset":77280,
			"target":34963
		}
	],
	"samplers":[
		{
			"magFilter":9729,
			"minFilter":9987
		}
	],
	"buffers":[
		{
			"byteLength":85664,
			"uri":"pistol.bin"
		}
	]
}
