# Blender v2.80 (sub 74) OBJ File: ''
# www.blender.org
mtllib pinballtable.mtl
o Cube
v 72.000000 61.238792 -128.253311
v 72.000000 -40.000000 -130.000000
v 72.000000 18.761208 128.253311
v -72.000000 61.238792 -128.253311
v -72.000000 -40.000000 -130.000000
v -72.000000 18.761208 128.253311
v -72.000000 -40.000000 130.000000
v -72.000000 -40.000000 97.500000
v -54.000000 -40.000000 -130.000000
v 72.000000 -32.654846 129.781662
v 53.782963 -40.182198 130.184479
v -72.000000 55.929100 -96.189980
v 72.000000 -40.000000 -97.500000
v -72.000000 -40.000000 -97.500000
v 54.000000 -40.000000 -130.000000
v -72.000000 -32.654846 129.781662
v 72.000000 55.929100 -96.189980
v -53.782963 -40.182198 130.184479
v 72.000000 -40.000000 97.500000
v -54.000000 -40.000000 97.500000
v -54.000000 -40.000000 -97.500000
v 54.000000 -40.000000 -97.500000
v 54.000000 -32.654846 129.781662
v 54.000000 24.070908 96.189980
v 54.000000 55.929100 -96.189980
v -54.000000 55.929100 -96.189980
v 54.000000 -40.000000 97.500000
v -54.000000 24.070908 96.189980
v 72.000000 -117.393227 -124.033272
v 72.000000 -117.393227 135.966736
v -72.000000 -117.393227 -124.033272
v -72.000000 -117.393227 135.966736
v -72.000000 -117.393227 103.466728
v -54.000000 -117.393227 -124.033272
v 71.999947 -110.048134 135.748596
v 53.999893 -117.393333 135.967102
v 72.000000 -117.393227 -91.533272
v -72.000000 -117.393227 -91.533272
v 54.000000 -117.393227 -124.033272
v -53.999893 -117.393333 135.967102
v 72.000000 -117.393227 103.466728
v -54.000000 -117.393227 103.466728
v -54.000000 -117.393227 -91.533272
v 54.000000 -117.393227 -91.533272
v 53.567741 -110.452744 137.213501
v 54.000000 -117.393227 103.466728
v 54.000000 8.746536 93.652260
v 54.000000 40.604725 -98.727707
v -54.000000 40.604725 -98.727707
v -54.000000 8.746536 93.652260
v 72.000000 128.794449 -110.881485
v -72.000000 128.794449 -110.881485
v -72.000000 100.436768 -95.004074
v 72.000000 100.436768 -95.004074
vt 0.020131 0.504160
vt 0.020131 0.741432
vt 0.020131 0.763937
vt 0.000000 0.763937
vt 0.000000 0.741432
vt 0.000000 0.504160
vt 0.000000 0.346627
vt 0.161048 0.346627
vt 0.161048 0.504160
vt 0.161048 0.526665
vt 0.161048 0.763937
vt 0.140917 0.763937
vt 0.140917 0.526665
vt 0.020131 0.526665
vt 0.351017 0.964698
vt 0.351017 0.758629
vt 0.378927 0.778784
vt 0.378927 0.984854
vt 0.161048 0.223756
vt 0.000000 0.223756
vt 0.020131 0.223756
vt 0.020131 0.329074
vt 0.140917 0.329074
vt 0.140917 0.223756
vt 0.626028 1.000000
vt 0.505242 1.000000
vt 0.505242 0.969345
vt 0.485111 0.969345
vt 0.485111 0.785416
vt 0.505242 0.785416
vt 0.505242 0.754761
vt 0.626028 0.754761
vt 0.626028 0.785416
vt 0.646159 0.785416
vt 0.646159 0.969345
vt 0.626028 0.969345
vt 0.185445 0.223580
vt 0.323107 0.341289
vt 0.322201 0.498905
vt 0.323107 0.736216
vt 0.322977 0.758732
vt 0.302850 0.758184
vt 0.301943 0.520873
vt 0.181176 0.517580
vt 0.182083 0.754891
vt 0.161955 0.754342
vt 0.161048 0.517032
vt 0.165778 0.206765
vt 0.178972 0.000000
vt 0.187783 0.087184
vt 0.347412 0.535053
vt 0.349708 0.671451
vt 0.340870 0.758629
vt 0.327741 0.551855
vt 0.323107 0.241584
vt 0.324087 0.004274
vt 0.344215 0.003740
vt 0.343235 0.241050
vt 0.464003 0.237844
vt 0.464983 0.000534
vt 0.485111 0.000000
vt 0.484131 0.237310
vt 0.484253 0.259827
vt 0.485111 0.417443
vt 0.378927 0.758629
vt 0.409788 0.758629
vt 0.409788 0.942558
vt 0.378927 0.942558
vt 0.646159 0.207217
vt 0.646159 0.517566
vt 0.646159 0.754761
vt 0.626028 0.754761
vt 0.626028 0.517566
vt 0.505242 0.517566
vt 0.505242 0.754761
vt 0.485111 0.754761
vt 0.485111 0.517566
vt 0.485111 0.207217
vt 0.485111 0.000000
vt 0.646159 0.000000
vt 0.000000 0.000000
vt 0.161048 0.000000
vt 0.161048 0.087490
vt 0.000000 0.087490
vt 0.646159 0.282345
vt 0.646356 0.259830
vt 0.646356 0.519660
vt 0.646375 0.022515
vt 0.666500 0.021788
vt 0.666500 0.259103
vt 0.646375 0.259830
vt 0.646159 0.237315
vt 0.646159 0.000000
vt 0.323107 0.984854
vt 0.323107 0.778784
vt 0.351017 0.758629
vt 0.351017 0.964698
vt 0.261704 0.758732
vt 0.281835 0.758732
vt 0.281835 0.789387
vt 0.261704 0.789387
vt 0.241573 0.758732
vt 0.261704 0.758732
vt 0.261704 0.789387
vt 0.241573 0.789387
vt 0.301966 0.758732
vt 0.322097 0.758732
vt 0.322097 0.789387
vt 0.301966 0.789387
vt 0.281835 0.758732
vt 0.301966 0.758732
vt 0.301966 0.789387
vt 0.281835 0.789387
vt 0.450039 0.758629
vt 0.470164 0.759356
vt 0.470164 0.996671
vt 0.450039 0.995944
vt 0.221442 0.758732
vt 0.241573 0.758732
vt 0.241573 0.995927
vt 0.221442 0.995927
vt 0.429914 0.759356
vt 0.450039 0.758629
vt 0.450039 0.995944
vt 0.429914 0.996671
vt 0.161048 0.758732
vt 0.181179 0.758732
vt 0.181179 0.996004
vt 0.161048 0.996004
vt 0.181179 0.758732
vt 0.201311 0.758732
vt 0.201311 0.996004
vt 0.181179 0.996004
vt 0.221442 0.995927
vt 0.201311 0.995927
vt 0.201311 0.758732
vt 0.221442 0.758732
vt 0.140917 0.270587
vt 0.020131 0.270588
vt 0.429914 0.996671
vt 0.409788 0.995944
vt 0.409788 0.758629
vt 0.429914 0.759356
vt 0.020131 0.375906
vt 0.140917 0.375906
vn 0.0047 0.0432 0.9991
vn -1.0000 -0.0000 0.0000
vn 0.0000 0.9866 0.1634
vn 0.0000 -1.0000 -0.0006
vn 1.0000 -0.0000 0.0000
vn 0.0000 0.1634 -0.9866
vn 0.0000 0.0933 -0.9956
vn 0.0000 0.4885 0.8725
vn -1.0000 -0.0019 -0.0067
vn 0.0000 -1.0000 -0.0000
vn 0.0000 -0.0769 -0.9970
vn 0.0000 0.0769 0.9970
vn 0.0000 -0.0551 0.9985
vn 1.0000 -0.0017 -0.0033
usemtl Material
s off
f 23/1/1 45/2/1 36/3/1 30/4/1 35/5/1 10/6/1 3/7/1 6/8/1 16/9/1 7/10/1 32/11/1 40/12/1 18/13/1 11/14/1
f 24/15/2 25/16/2 48/17/2 47/18/2
f 12/19/3 6/8/3 3/7/3 17/20/3 25/21/3 24/22/3 28/23/3 26/24/3
f 9/25/4 15/26/4 22/27/4 13/28/4 19/29/4 27/30/4 11/31/4 18/32/4 20/33/4 8/34/4 14/35/4 21/36/4
f 17/37/5 3/38/5 10/39/5 35/40/5 30/41/5 41/42/5 19/43/5 13/44/5 37/45/5 29/46/5 2/47/5 1/48/5 51/49/5 54/50/5
f 12/51/2 53/52/2 52/53/2 4/54/2 5/55/2 31/56/2 38/57/2 14/58/2 8/59/2 33/60/2 32/61/2 7/62/2 16/63/2 6/64/2
f 24/65/6 47/66/6 50/67/6 28/68/6
f 1/69/7 2/70/7 29/71/7 39/72/7 15/73/7 9/74/7 34/75/7 31/76/7 5/77/7 4/78/7 52/79/7 51/80/7
f 51/81/8 52/82/8 53/83/8 54/84/8
f 7/85/5 16/86/5 32/87/5
f 11/88/9 27/89/9 46/90/9 36/91/9 45/92/9 23/93/9
f 26/94/5 28/95/5 50/96/5 49/97/5
f 46/98/10 41/99/10 30/100/10 36/101/10
f 33/102/10 42/103/10 40/104/10 32/105/10
f 31/106/10 34/107/10 43/108/10 38/109/10
f 39/110/10 29/111/10 37/112/10 44/113/10
f 9/114/5 21/115/5 43/116/5 34/117/5
f 8/118/11 20/119/11 42/120/11 33/121/11
f 22/122/2 15/123/2 39/124/2 44/125/2
f 21/126/12 14/127/12 38/128/12 43/129/12
f 13/130/12 22/131/12 44/132/12 37/133/12
f 27/134/11 19/135/11 41/136/11 46/137/11
f 26/24/13 49/138/13 48/139/13 25/21/13 17/20/13 54/84/13 53/83/13 12/19/13
f 20/140/14 18/141/14 40/142/14 42/143/14
f 47/144/3 48/139/3 49/138/3 50/145/3
o Cube.001
v -1.000000 -1.000000 1.000000
v -1.000000 1.000000 1.000000
v -1.000000 -1.000000 -1.000000
v -1.000000 1.000000 -1.000000
v 1.000000 -1.000000 1.000000
v 1.000000 1.000000 1.000000
v 1.000000 -1.000000 -1.000000
v 1.000000 1.000000 -1.000000
vt 0.375000 0.000000
vt 0.625000 0.000000
vt 0.625000 0.250000
vt 0.375000 0.250000
vt 0.625000 0.500000
vt 0.375000 0.500000
vt 0.625000 0.750000
vt 0.375000 0.750000
vt 0.625000 1.000000
vt 0.375000 1.000000
vt 0.125000 0.500000
vt 0.125000 0.750000
vt 0.875000 0.500000
vt 0.875000 0.750000
vn -1.0000 0.0000 0.0000
vn 0.0000 0.0000 -1.0000
vn 1.0000 0.0000 0.0000
vn 0.0000 0.0000 1.0000
vn 0.0000 -1.0000 0.0000
vn 0.0000 1.0000 0.0000
usemtl None
s off
f 55/146/15 56/147/15 58/148/15 57/149/15
f 57/149/16 58/148/16 62/150/16 61/151/16
f 61/151/17 62/150/17 60/152/17 59/153/17
f 59/153/18 60/152/18 56/154/18 55/155/18
f 57/156/19 61/151/19 59/153/19 55/157/19
f 62/150/20 58/158/20 56/159/20 60/152/20
